<svg width="18" height="18" viewBox="0 0 18 18" fill="none" xmlns="http://www.w3.org/2000/svg">
<path d="M13.9635 5.59649L4.80225 1.56374C4.61894 1.48337 4.41124 1.47906 4.22475 1.55174C4.13259 1.58825 4.04856 1.64263 3.97751 1.71175C3.90646 1.78087 3.84978 1.86337 3.81075 1.95449L1.56075 7.20449C1.4824 7.38729 1.47987 7.59373 1.55371 7.7784C1.62755 7.96307 1.77171 8.11085 1.9545 8.18924L7.17225 10.425L6.24225 12.75H3V10.5H1.5V16.5H3V14.25H6.24225C6.8595 14.25 7.40625 13.8795 7.63425 13.3065L8.55075 11.016L11.115 12.1147C11.297 12.1929 11.5025 12.196 11.6867 12.1232C11.8709 12.0504 12.0189 11.9077 12.0983 11.7262L14.3483 6.58349C14.4279 6.40155 14.4321 6.19547 14.3599 6.01044C14.2878 5.82541 14.1452 5.67655 13.9635 5.59649ZM14.9475 12.279L13.554 11.7225L15.0525 7.97249L16.446 8.52824L14.9475 12.279Z" fill="#211A2C"/>
</svg>
