<svg width="13" height="13" viewBox="0 0 13 13" fill="none" xmlns="http://www.w3.org/2000/svg">
<path d="M5.0495 1.94299C5.63472 1.35349 6.59006 1.35349 7.18028 1.93849L7.54541 2.30299C7.68546 2.44299 7.87553 2.52349 8.0756 2.52349H8.59079C9.42109 2.52349 10.0963 3.19799 10.0963 4.02799V4.54349C10.0963 4.74299 10.1764 4.93299 10.3164 5.07299L10.6765 5.43299C10.9616 5.71299 11.1167 6.09299 11.1167 6.49299C11.1217 6.89299 10.9667 7.27349 10.6865 7.55799L10.3164 7.92799C10.1764 8.06799 10.0963 8.25799 10.0963 8.45849V8.97299C10.0963 9.80299 9.42109 10.4785 8.59079 10.4785H8.0756C7.87553 10.4785 7.68546 10.558 7.54541 10.698L7.18528 11.058C6.89017 11.3535 6.50503 11.498 6.11989 11.498C5.73475 11.498 5.34961 11.3535 5.05451 11.0635L4.68937 10.698C4.54932 10.558 4.35925 10.4785 4.15918 10.4785H3.644C2.81369 10.4785 2.13845 9.80299 2.13845 8.97299V8.45849C2.13845 8.25799 2.05842 8.06799 1.91837 7.92299L1.55824 7.56799C0.973027 6.98349 0.968025 6.02799 1.55324 5.43849L1.91837 5.07299C2.05842 4.93299 2.13845 4.74299 2.13845 4.53799V4.02799C2.13845 3.19799 2.81369 2.52349 3.644 2.52349H4.15918C4.35925 2.52349 4.54932 2.44299 4.68937 2.30299L5.0495 1.94299ZM7.40536 7.34799C7.16027 7.34799 6.9652 7.54349 6.9652 7.78299C6.9652 8.02799 7.16027 8.22299 7.40536 8.22299C7.64545 8.22299 7.84052 8.02799 7.84052 7.78299C7.84052 7.54349 7.64545 7.34799 7.40536 7.34799ZM7.71047 4.90299C7.54041 4.73349 7.26531 4.73349 7.09525 4.90299L4.52431 7.47299C4.35425 7.64299 4.35425 7.92299 4.52431 8.09299C4.60434 8.17799 4.71438 8.22299 4.82943 8.22299C4.94947 8.22299 5.05951 8.17799 5.13954 8.09299L7.71047 5.52349C7.88053 5.35349 7.88053 5.07299 7.71047 4.90299ZM4.83443 4.77799C4.59434 4.77799 4.39427 4.97299 4.39427 5.21299C4.39427 5.45849 4.59434 5.65299 4.83443 5.65299C5.07451 5.65299 5.26958 5.45849 5.26958 5.21299C5.26958 4.97299 5.07451 4.77799 4.83443 4.77799Z" fill="#FD8900"/>
</svg>
