<svg width="18" height="14" viewBox="0 0 18 14" fill="none" xmlns="http://www.w3.org/2000/svg">
<g clip-path="url(#clip0_28_727)">
<path d="M11.25 0C11.3906 0 11.5256 0.065625 11.61 0.175C12.5859 1.44102 13.8066 2.22305 15.3647 3.22383C15.5109 3.3168 15.66 3.41523 15.8147 3.51367C16.6275 4.03867 17.1 4.92734 17.1 5.86797C17.1 6.65 16.7822 7.3582 16.2619 7.875H6.23812C5.72062 7.35547 5.4 6.64727 5.4 5.86797C5.4 4.92734 5.86969 4.03867 6.68531 3.51367C6.83719 3.41523 6.98906 3.31953 7.13531 3.22383C8.69344 2.22305 9.91406 1.44102 10.89 0.175C10.9744 0.065625 11.1094 0 11.25 0ZM8.1 14V12.0312C8.1 11.6676 7.79906 11.375 7.425 11.375C7.05094 11.375 6.75 11.6676 6.75 12.0312V14H5.4C4.90219 14 4.5 13.609 4.5 13.125V9.625C4.5 9.14102 4.90219 8.75 5.4 8.75H17.1C17.5978 8.75 18 9.14102 18 9.625V13.125C18 13.609 17.5978 14 17.1 14H15.75V12.0312C15.75 11.6676 15.4491 11.375 15.075 11.375C14.7009 11.375 14.4 11.6676 14.4 12.0312V14H12.6V12.4141C12.6 11.8945 12.3637 11.4023 11.9531 11.0687L11.25 10.5L10.5469 11.0687C10.1362 11.4023 9.9 11.8945 9.9 12.4141V14H8.1ZM1.98 0.142187C2.05771 0.0849659 2.15252 0.0539978 2.25 0.0539978C2.34748 0.0539978 2.44229 0.0849659 2.52 0.142187L2.97 0.470313C3.93187 1.17305 4.5 2.275 4.5 3.44531V3.5H0V3.44531C0 2.275 0.568125 1.17305 1.53 0.470313L1.98 0.142187ZM0 4.375H4.5V8.11016C3.96281 8.41367 3.6 8.97695 3.6 9.625V13.125C3.6 13.3875 3.65906 13.6336 3.76312 13.8578C3.5775 13.9508 3.36937 14 3.15 14H1.35C0.604688 14 0 13.4121 0 12.6875V4.375Z" fill="#211A2C"/>
</g>
<defs>
<clipPath id="clip0_28_727">
<rect width="18" height="14" fill="white"/>
</clipPath>
</defs>
</svg>
