<svg width="38" height="31" viewBox="0 0 38 31" fill="none" xmlns="http://www.w3.org/2000/svg">
<path fill-rule="evenodd" clip-rule="evenodd" d="M3.41564 3.78808C3.95432 3.2494 4.68492 2.94678 5.44672 2.94678H18V8.76533C16.5642 8.97851 15.2244 9.64695 14.1857 10.6857C12.9088 11.9626 12.1915 13.6943 12.1915 15.5001C12.1915 17.3058 12.9088 19.0376 14.1857 20.3145C15.2244 21.3532 16.5642 22.0217 18 22.2348V28.0534H5.44672C4.68492 28.0534 3.95432 27.7508 3.41564 27.2121C2.87697 26.6735 2.57434 25.9429 2.57434 25.181V22.3087H7.38291C7.93519 22.3087 8.38291 21.8609 8.38291 21.3087V9.69152C8.38291 9.13924 7.93519 8.69152 7.38291 8.69152H2.57434V5.81916C2.57434 5.05735 2.87697 4.32675 3.41564 3.78808ZM2.57434 10.6915V20.3087H6.38291V10.6915H2.57434ZM0.574341 9.69152V5.81916C0.574341 4.52692 1.08768 3.28761 2.00143 2.37386C2.91518 1.46012 4.15448 0.946777 5.44672 0.946777H19H32.5534C33.8456 0.946777 35.0849 1.46012 35.9987 2.37386C36.9124 3.28761 37.4257 4.52692 37.4257 5.81916V9.69152V21.3087V25.181C37.4257 26.4733 36.9124 27.7126 35.9987 28.6263C35.0849 29.5401 33.8456 30.0534 32.5534 30.0534H19H5.44672C4.15448 30.0534 2.91517 29.5401 2.00143 28.6263C1.08768 27.7126 0.574341 26.4733 0.574341 25.181V21.3087V9.69152ZM35.4257 20.3087V10.6915H31.6172V20.3087H35.4257ZM35.4257 8.69152H30.6172C30.0649 8.69152 29.6172 9.13924 29.6172 9.69152V21.3087C29.6172 21.8609 30.0649 22.3087 30.6172 22.3087H35.4257V25.181C35.4257 25.9429 35.1231 26.6735 34.5844 27.2121C34.0458 27.7508 33.3152 28.0534 32.5534 28.0534H20V22.2348C21.4358 22.0217 22.7757 21.3532 23.8144 20.3145C25.0913 19.0376 25.8086 17.3058 25.8086 15.5001C25.8086 13.6943 25.0913 11.9626 23.8144 10.6857C22.7757 9.64695 21.4358 8.97851 20 8.76533V2.94678H32.5534C33.3152 2.94678 34.0458 3.2494 34.5844 3.78808C35.1231 4.32675 35.4257 5.05735 35.4257 5.81916V8.69152ZM18 10.7966C17.0977 10.9885 16.2622 11.4376 15.5999 12.0999C14.6981 13.0017 14.1915 14.2248 14.1915 15.5001C14.1915 16.7754 14.6981 17.9985 15.5999 18.9003C16.2622 19.5625 17.0977 20.0117 18 20.2035V10.7966ZM20 20.2035V10.7966C20.9023 10.9885 21.7379 11.4376 22.4002 12.0999C23.302 13.0017 23.8086 14.2248 23.8086 15.5001C23.8086 16.7754 23.302 17.9985 22.4002 18.9003C21.7379 19.5625 20.9023 20.0117 20 20.2035Z" fill="#211A2C"/>
</svg>
