<svg width="16" height="15" viewBox="0 0 16 15" fill="none" xmlns="http://www.w3.org/2000/svg">
<path fill-rule="evenodd" clip-rule="evenodd" d="M5.1875 3.0625C5.1875 2.31658 5.48382 1.60121 6.01126 1.07376C6.53871 0.546316 7.25408 0.25 8 0.25C8.74592 0.25 9.46129 0.546316 9.98874 1.07376C10.5162 1.60121 10.8125 2.31658 10.8125 3.0625C10.8125 3.80842 10.5162 4.52379 9.98874 5.05124C9.46129 5.57868 8.74592 5.875 8 5.875C7.25408 5.875 6.53871 5.57868 6.01126 5.05124C5.48382 4.52379 5.1875 3.80842 5.1875 3.0625ZM10.8125 5.3125C10.8125 4.71576 11.0496 4.14347 11.4715 3.72151C11.8935 3.29955 12.4658 3.0625 13.0625 3.0625C13.6592 3.0625 14.2315 3.29955 14.6535 3.72151C15.0754 4.14347 15.3125 4.71576 15.3125 5.3125C15.3125 5.90924 15.0754 6.48153 14.6535 6.90349C14.2315 7.32545 13.6592 7.5625 13.0625 7.5625C12.4658 7.5625 11.8935 7.32545 11.4715 6.90349C11.0496 6.48153 10.8125 5.90924 10.8125 5.3125ZM0.6875 5.3125C0.6875 4.71576 0.924553 4.14347 1.34651 3.72151C1.76847 3.29955 2.34076 3.0625 2.9375 3.0625C3.53424 3.0625 4.10653 3.29955 4.52849 3.72151C4.95045 4.14347 5.1875 4.71576 5.1875 5.3125C5.1875 5.90924 4.95045 6.48153 4.52849 6.90349C4.10653 7.32545 3.53424 7.5625 2.9375 7.5625C2.34076 7.5625 1.76847 7.32545 1.34651 6.90349C0.924553 6.48153 0.6875 5.90924 0.6875 5.3125ZM3.7325 9.33775C4.18996 8.62077 4.82081 8.03069 5.56672 7.62208C6.31262 7.21347 7.14951 6.99952 8 7C8.71237 6.99935 9.41684 7.14916 10.0673 7.43962C10.7178 7.73008 11.2995 8.15465 11.7745 8.68553C12.2496 9.2164 12.6071 9.84161 12.8237 10.5202C13.0404 11.1989 13.1113 11.9156 13.0317 12.6235C13.022 12.7114 12.9917 12.7959 12.9432 12.8699C12.8947 12.9439 12.8295 13.0054 12.7528 13.0495C11.3064 13.8794 9.66751 14.3149 8 14.3125C6.33246 14.3151 4.6935 13.8796 3.24725 13.0495C3.17052 13.0054 3.10526 12.9439 3.05678 12.8699C3.0083 12.7959 2.97797 12.7114 2.96825 12.6235C2.84229 11.4735 3.11185 10.3148 3.7325 9.3385V9.33775Z" fill="#211A2C"/>
<path d="M2.8115 8.69049C2.07182 9.83228 1.72719 11.1852 1.8305 12.5417C1.38013 12.4735 0.937179 12.363 0.5075 12.2117L0.42125 12.1817C0.344296 12.1544 0.276913 12.1054 0.227261 12.0406C0.177609 11.9757 0.147819 11.8979 0.1415 11.8165L0.134 11.7257C0.103703 11.3492 0.149566 10.9704 0.268853 10.612C0.388139 10.2536 0.578403 9.9229 0.828292 9.63962C1.07818 9.35634 1.38257 9.1263 1.72331 8.96323C2.06404 8.80017 2.43413 8.70741 2.8115 8.69049ZM14.1695 12.5417C14.2728 11.1852 13.9282 9.83228 13.1885 8.69049C13.5659 8.70741 13.936 8.80017 14.2767 8.96323C14.6174 9.1263 14.9218 9.35634 15.1717 9.63962C15.4216 9.9229 15.6119 10.2536 15.7311 10.612C15.8504 10.9704 15.8963 11.3492 15.866 11.7257L15.8585 11.8165C15.852 11.8978 15.8222 11.9754 15.7725 12.0401C15.7229 12.1048 15.6556 12.1537 15.5787 12.181L15.4925 12.211C15.0672 12.361 14.6255 12.4727 14.1695 12.5417Z" fill="#211A2C"/>
</svg>
