<svg width="24" height="25" viewBox="0 0 24 25" fill="none" xmlns="http://www.w3.org/2000/svg">
<path d="M16.6308 11.369C16.5743 11.311 16.3609 11.063 16.1622 10.859C14.9971 9.576 11.9576 7.476 10.3668 6.835C10.1252 6.732 9.51437 6.514 9.18802 6.5C8.8753 6.5 8.5772 6.572 8.29274 6.718C7.93814 6.922 7.65368 7.243 7.49781 7.622C7.39747 7.885 7.2416 8.672 7.2416 8.686C7.08573 9.547 7 10.946 7 12.492C7 13.965 7.08573 15.307 7.21335 16.181C7.22796 16.195 7.38383 17.173 7.55431 17.508C7.86702 18.12 8.47784 18.5 9.13152 18.5H9.18802C9.61374 18.485 10.509 18.105 10.509 18.091C12.0141 17.449 14.9834 15.452 16.1768 14.125C16.1768 14.125 16.5129 13.784 16.659 13.571C16.887 13.265 17 12.886 17 12.507C17 12.084 16.8724 11.69 16.6308 11.369Z" fill="#DFDFDF"/>
</svg>
