<svg width="18" height="18" viewBox="0 0 18 18" fill="none" xmlns="http://www.w3.org/2000/svg">
<path fill-rule="evenodd" clip-rule="evenodd" d="M16.5001 9C16.5001 13.14 13.1326 16.5 9.00012 16.5L8.7903 16.4971C4.74719 16.3859 1.50012 13.0698 1.50012 9C1.50012 4.8675 4.86012 1.5 9.00012 1.5C13.1326 1.5 16.5001 4.8675 16.5001 9ZM7.51512 6C7.29762 6.225 7.29762 6.5775 7.52262 6.795L9.73512 9L7.52262 11.205C7.29762 11.4225 7.29762 11.7825 7.51512 12C7.74012 12.225 8.09262 12.225 8.31012 12L10.9276 9.3975C11.0326 9.2925 11.0926 9.15 11.0926 9C11.0926 8.85 11.0326 8.7075 10.9276 8.6025L8.31012 6C8.20512 5.8875 8.06262 5.835 7.92012 5.835C7.77012 5.835 7.62762 5.8875 7.51512 6Z" fill="#211A2C"/>
</svg>
