<svg width="25" height="24" viewBox="0 0 25 24" fill="none" xmlns="http://www.w3.org/2000/svg">
<path d="M16.1497 2C16.5742 1.99901 16.9099 2.32884 16.9109 2.76862L16.9119 3.51824C19.6665 3.73414 21.4862 5.6112 21.4891 8.48975L21.5 16.9155C21.5039 20.054 19.5322 21.985 16.3718 21.99L8.65189 22C5.5112 22.004 3.51482 20.027 3.51087 16.8796L3.50001 8.55272C3.49606 5.65517 5.25153 3.78311 8.00618 3.53024L8.00519 2.78061C8.0042 2.34083 8.33002 2.01 8.76445 2.01C9.19887 2.009 9.52469 2.33883 9.52568 2.77861L9.52666 3.47826L15.3914 3.47027L15.3904 2.77062C15.3894 2.33084 15.7152 2.001 16.1497 2ZM16.5525 16.1919H16.5426C16.0884 16.2029 15.7241 16.5837 15.734 17.0435C15.735 17.5032 16.1013 17.882 16.5555 17.892C17.0185 17.891 17.3937 17.5102 17.3927 17.0405C17.3927 16.5707 17.0165 16.1919 16.5525 16.1919ZM8.41691 16.1929C7.96274 16.2129 7.6073 16.5937 7.60828 17.0535C7.62902 17.5132 8.0042 17.8731 8.45837 17.8521C8.90366 17.8321 9.25811 17.4513 9.23738 16.9915C9.2275 16.5417 8.8612 16.1919 8.41691 16.1929ZM12.4847 16.1879C12.0305 16.2089 11.6761 16.5887 11.6761 17.0485C11.6968 17.5082 12.072 17.8671 12.5262 17.8471C12.9705 17.8261 13.3259 17.4463 13.3052 16.9855C13.2953 16.5367 12.929 16.1869 12.4847 16.1879ZM8.41197 12.5947C7.9578 12.6147 7.60335 12.9955 7.60433 13.4553C7.62408 13.915 8.00025 14.2749 8.45442 14.2539C8.89872 14.2339 9.25317 13.8531 9.23244 13.3933C9.22257 12.9435 8.85725 12.5937 8.41197 12.5947ZM12.4807 12.5597C12.0266 12.5797 11.6711 12.9605 11.6721 13.4203C11.6919 13.8801 12.068 14.2389 12.5222 14.2189C12.9665 14.1979 13.321 13.8181 13.3012 13.3583C13.2904 12.9085 12.925 12.5587 12.4807 12.5597ZM16.5485 12.5647C16.0944 12.5747 15.7389 12.9445 15.7399 13.4043V13.4153C15.7498 13.8751 16.125 14.2239 16.5801 14.2139C17.0244 14.2029 17.3789 13.8221 17.369 13.3623C17.3483 12.9225 16.9918 12.5637 16.5485 12.5647ZM15.3934 5.0095L9.52864 5.01749L9.52962 5.82609C9.52962 6.25687 9.20479 6.5967 8.77037 6.5967C8.33595 6.5977 8.00914 6.25887 8.00914 5.82809L8.00815 5.05847C6.08286 5.25138 5.01754 6.38281 5.02049 8.55072L5.02149 8.86157L19.9696 8.84158V8.49175C19.9272 6.34283 18.849 5.21539 16.9138 5.04748L16.9148 5.81709C16.9148 6.24688 16.5801 6.58771 16.1556 6.58771C15.7212 6.58871 15.3944 6.24888 15.3944 5.81909L15.3934 5.0095Z" fill="#211A2C" fill-opacity="0.5"/>
</svg>
