<svg width="18" height="21" viewBox="0 0 18 21" fill="none" xmlns="http://www.w3.org/2000/svg">
<path d="M12.6497 0.500002C13.0742 0.499005 13.4099 0.82884 13.4109 1.26862L13.4119 2.01824C16.1665 2.23414 17.9862 4.11119 17.9891 6.98975L18 15.4155C18.0039 18.554 16.0322 20.485 12.8718 20.49L5.15189 20.5C2.0112 20.504 0.0148232 18.527 0.0108739 15.3795L6.6274e-06 7.05272C-0.00393603 4.15517 1.75153 2.28311 4.50618 2.03024L4.50519 1.28061C4.5042 0.840834 4.83002 0.51 5.26445 0.51C5.69887 0.509 6.02469 0.838835 6.02568 1.27861L6.02666 1.97826L11.8914 1.97027L11.8904 1.27062C11.8894 0.830839 12.2152 0.501004 12.6497 0.500002ZM13.0525 14.6919H13.0426C12.5884 14.7029 12.2241 15.0837 12.234 15.5435C12.235 16.0032 12.6013 16.382 13.0555 16.392C13.5185 16.391 13.8937 16.0102 13.8927 15.5405C13.8927 15.0707 13.5165 14.6919 13.0525 14.6919ZM4.91691 14.6929C4.46274 14.7129 4.1073 15.0937 4.10828 15.5535C4.12902 16.0132 4.5042 16.373 4.95837 16.3521C5.40366 16.3321 5.75811 15.9513 5.73738 15.4915C5.7275 15.0417 5.3612 14.6919 4.91691 14.6929ZM8.9847 14.6879C8.53053 14.7089 8.17608 15.0887 8.17608 15.5485C8.19681 16.0082 8.57199 16.3671 9.02617 16.3471C9.47046 16.3261 9.8259 15.9463 9.80517 15.4855C9.79529 15.0367 9.42899 14.6869 8.9847 14.6879ZM4.91197 11.0947C4.4578 11.1147 4.10335 11.4955 4.10433 11.9553C4.12408 12.415 4.50025 12.7749 4.95442 12.7539C5.39872 12.7339 5.75317 12.3531 5.73244 11.8933C5.72257 11.4435 5.35725 11.0937 4.91197 11.0947ZM8.98075 11.0597C8.52658 11.0797 8.17114 11.4605 8.17212 11.9203C8.19187 12.3801 8.56805 12.7389 9.02222 12.7189C9.46651 12.6979 9.82096 12.3181 9.80122 11.8583C9.79036 11.4085 9.42505 11.0587 8.98075 11.0597ZM13.0485 11.0647C12.5944 11.0747 12.2389 11.4445 12.2399 11.9043V11.9153C12.2498 12.3751 12.625 12.7239 13.0801 12.7139C13.5244 12.7029 13.8789 12.3221 13.869 11.8623C13.8483 11.4225 13.4918 11.0637 13.0485 11.0647ZM11.8934 3.5095L6.02864 3.51749L6.02962 4.32609C6.02962 4.75687 5.70479 5.0967 5.27037 5.0967C4.83595 5.0977 4.50914 4.75887 4.50914 4.32809L4.50815 3.55847C2.58286 3.75137 1.51754 4.88281 1.52049 7.05072L1.52149 7.36157L16.4696 7.34158V6.99175C16.4272 4.84283 15.349 3.71539 13.4138 3.54748L13.4148 4.31709C13.4148 4.74688 13.0801 5.08771 12.6556 5.08771C12.2212 5.0887 11.8944 4.74888 11.8944 4.31909L11.8934 3.5095Z" fill="white"/>
</svg>
