<svg width="25" height="24" viewBox="0 0 25 24" fill="none" xmlns="http://www.w3.org/2000/svg">
<path fill-rule="evenodd" clip-rule="evenodd" d="M4.61612 6.11612C4.85054 5.8817 5.16848 5.75 5.5 5.75H11.75V8.32575C11.0349 8.47173 10.3721 8.82456 9.84835 9.34835C9.14509 10.0516 8.75 11.0054 8.75 12C8.75 12.9946 9.14509 13.9484 9.84835 14.6517C10.3721 15.1754 11.0349 15.5283 11.75 15.6742V18.25H5.5C5.16848 18.25 4.85054 18.1183 4.61612 17.8839C4.3817 17.6495 4.25 17.3315 4.25 17V15.75H6.5C6.91421 15.75 7.25 15.4142 7.25 15V9C7.25 8.58579 6.91421 8.25 6.5 8.25H4.25V7C4.25 6.66848 4.3817 6.35054 4.61612 6.11612ZM4.25 9.75V14.25H5.75V9.75H4.25ZM2.75 9V7C2.75 6.27065 3.03973 5.57118 3.55546 5.05546C4.07118 4.53973 4.77065 4.25 5.5 4.25H12.5H19.5C20.2293 4.25 20.9288 4.53973 21.4445 5.05546C21.9603 5.57118 22.25 6.27065 22.25 7V9V15V17C22.25 17.7293 21.9603 18.4288 21.4445 18.9445C20.9288 19.4603 20.2293 19.75 19.5 19.75H12.5H5.5C4.77065 19.75 4.07118 19.4603 3.55546 18.9445C3.03973 18.4288 2.75 17.7293 2.75 17V15V9ZM20.75 14.25V9.75H19.25V14.25H20.75ZM20.75 8.25H18.5C18.0858 8.25 17.75 8.58579 17.75 9V15C17.75 15.4142 18.0858 15.75 18.5 15.75H20.75V17C20.75 17.3315 20.6183 17.6495 20.3839 17.8839C20.1495 18.1183 19.8315 18.25 19.5 18.25H13.25V15.6742C13.9651 15.5283 14.6279 15.1754 15.1517 14.6517C15.8549 13.9484 16.25 12.9946 16.25 12C16.25 11.0054 15.8549 10.0516 15.1517 9.34835C14.6279 8.82456 13.9651 8.47173 13.25 8.32575V5.75H19.5C19.8315 5.75 20.1495 5.8817 20.3839 6.11612C20.6183 6.35054 20.75 6.66848 20.75 7V8.25ZM11.75 9.87868C11.4366 9.9895 11.1486 10.1695 10.909 10.409C10.4871 10.831 10.25 11.4033 10.25 12C10.25 12.5967 10.4871 13.169 10.909 13.591C11.1486 13.8305 11.4366 14.0105 11.75 14.1213V9.87868ZM13.25 14.1213V9.87868C13.5634 9.9895 13.8514 10.1695 14.091 10.409C14.5129 10.831 14.75 11.4033 14.75 12C14.75 12.5967 14.5129 13.169 14.091 13.591C13.8514 13.8305 13.5634 14.0105 13.25 14.1213Z" fill="#211A2C"/>
</svg>
