<svg width="25" height="24" viewBox="0 0 25 24" fill="none" xmlns="http://www.w3.org/2000/svg">
<path d="M17.1694 2.00049C20.5704 2.00049 22.4904 3.92949 22.5004 7.33049V16.6705C22.5004 20.0705 20.5704 22.0005 17.1694 22.0005H7.83037C4.42937 22.0005 2.50037 20.0705 2.50037 16.6705V7.33049C2.50037 3.92949 4.42937 2.00049 7.83037 2.00049H17.1694ZM13.0004 6.13049C12.7194 5.96049 12.3794 5.96049 12.1104 6.13049C11.8394 6.29949 11.6904 6.61049 11.7194 6.92049V17.1105C11.7704 17.5405 12.1294 17.8605 12.5494 17.8605C12.9804 17.8605 13.3394 17.5405 13.3794 17.1105V6.92049C13.4194 6.61049 13.2704 6.29949 13.0004 6.13049ZM8.33037 9.41049C8.06037 9.24049 7.71937 9.24049 7.45037 9.41049C7.17937 9.58049 7.03037 9.88949 7.06037 10.2005V17.1105C7.09937 17.5405 7.45937 17.8605 7.88937 17.8605C8.32037 17.8605 8.67937 17.5405 8.71937 17.1105V10.2005C8.75037 9.88949 8.59937 9.58049 8.33037 9.41049ZM17.5894 13.0405C17.3204 12.8705 16.9804 12.8705 16.7004 13.0405C16.4294 13.2105 16.2804 13.5095 16.3204 13.8305V17.1105C16.3604 17.5405 16.7194 17.8605 17.1504 17.8605C17.5704 17.8605 17.9294 17.5405 17.9804 17.1105V13.8305C18.0094 13.5095 17.8604 13.2105 17.5894 13.0405Z" fill="#211A2C"/>
</svg>
