<svg width="18" height="19" viewBox="0 0 18 19" fill="none" xmlns="http://www.w3.org/2000/svg">
<path d="M9.38045 2C7.51853 2 6 3.4925 6 5.33V8.9225H10.5785C10.9066 8.9225 11.1661 9.1775 11.1661 9.5C11.1661 9.815 10.9066 10.0775 10.5785 10.0775H6V13.6625C6 15.5 7.51853 17 9.39571 17H13.1119C14.9815 17 16.5 15.5075 16.5 13.67V5.3375C16.5 3.4925 14.9738 2 13.1043 2H9.38045ZM4.09485 6.91265C3.86985 6.68015 3.50235 6.68015 3.27735 6.90515L1.08735 9.08765C0.974851 9.20015 0.91485 9.34265 0.91485 9.50015C0.91485 9.65015 0.974851 9.80015 1.08735 9.90515L3.27735 12.0877C3.38985 12.2002 3.53985 12.2601 3.68235 12.2601C3.83235 12.2601 3.98235 12.2002 4.09485 12.0877C4.31985 11.8626 4.31985 11.4951 4.09485 11.2702L2.89485 10.0777L6 10.0775V8.9225L2.89485 8.92265L4.09485 7.73015C4.31985 7.50515 4.31985 7.13765 4.09485 6.91265Z" fill="white"/>
</svg>
