<svg width="13" height="13" viewBox="0 0 13 13" fill="none" xmlns="http://www.w3.org/2000/svg">
<path d="M9.64601 7.84778C9.51146 7.97817 9.44965 8.16674 9.4803 8.35168L9.94211 10.9075C9.98108 11.1241 9.88965 11.3434 9.70835 11.4686C9.53069 11.5984 9.29432 11.614 9.10056 11.5101L6.79978 10.3101C6.71978 10.2675 6.63095 10.2447 6.54004 10.2421H6.39926C6.35043 10.2493 6.30263 10.2649 6.259 10.2888L3.9577 11.4945C3.84393 11.5517 3.7151 11.5719 3.58887 11.5517C3.28134 11.4935 3.07614 11.2005 3.12653 10.8914L3.58887 8.33557C3.61952 8.14908 3.5577 7.95947 3.42315 7.827L1.54731 6.00882C1.39043 5.85661 1.33588 5.62804 1.40757 5.42181C1.47718 5.21609 1.65484 5.06596 1.86939 5.03219L4.45121 4.65765C4.64757 4.63739 4.82004 4.51791 4.90835 4.34129L6.04601 2.00882C6.07302 1.95687 6.10783 1.90908 6.14991 1.86856L6.19666 1.83219C6.22108 1.80518 6.24913 1.78284 6.2803 1.76466L6.33692 1.74388L6.42523 1.70752H6.64393C6.83926 1.72778 7.0112 1.84466 7.10107 2.01921L8.2538 4.34129C8.33692 4.51116 8.49848 4.62908 8.68497 4.65765L11.2668 5.03219C11.485 5.06336 11.6673 5.21401 11.7395 5.42181C11.8076 5.63012 11.7489 5.85869 11.5889 6.00882L9.64601 7.84778Z" fill="#FDC300"/>
</svg>
