<svg width="18" height="19" viewBox="0 0 18 19" fill="none" xmlns="http://www.w3.org/2000/svg">
<path d="M8.984 2C10.7597 2 12.3289 3.09656 12.9081 4.7209C12.969 4.8849 12.9538 5.06381 12.8776 5.22036C12.8014 5.3769 12.665 5.49617 12.4965 5.5491C12.1536 5.66763 11.7725 5.48946 11.643 5.14656C11.2543 4.04254 10.1881 3.30454 8.99924 3.30454C7.44378 3.30454 6.18707 4.52783 6.17869 6.02544V7.03181L6.16955 7.0333H12.1734C13.9415 7.0333 15.375 8.43549 15.375 10.1649V13.8684C15.375 15.5978 13.9415 17 12.1734 17H5.82584C4.05852 17 2.625 15.5978 2.625 13.8684V10.1649C2.625 8.74262 3.60049 7.55511 4.92808 7.17344L4.84501 7.18313V6.04035C4.86025 3.8122 6.71293 2 8.984 2ZM8.99619 10.5369C8.63038 10.5369 8.33316 10.8277 8.33316 11.1855V12.8404C8.33316 13.2056 8.63038 13.4964 8.99619 13.4964C9.36962 13.4964 9.66684 13.2056 9.66684 12.8404V11.1855C9.66684 10.8277 9.36962 10.5369 8.99619 10.5369Z" fill="white"/>
</svg>
