<svg width="18" height="18" viewBox="0 0 18 18" fill="none" xmlns="http://www.w3.org/2000/svg">
<path d="M9 13.5H16.5V4.5H1.5V13.5H9ZM9 13.5V10.5M9 4.5V7.5" stroke="#211A2C" stroke-linecap="round" stroke-linejoin="round"/>
<path d="M9 10.5C9.82843 10.5 10.5 9.82843 10.5 9C10.5 8.17157 9.82843 7.5 9 7.5C8.17157 7.5 7.5 8.17157 7.5 9C7.5 9.82843 8.17157 10.5 9 10.5Z" stroke="#211A2C" stroke-linecap="round" stroke-linejoin="round"/>
<path d="M4.125 9C4.125 9.39782 3.96696 9.77936 3.68566 10.0607C3.40436 10.342 3.02282 10.5 2.625 10.5H1.5V7.5H2.625C3.02282 7.5 3.40436 7.65804 3.68566 7.93934C3.96696 8.22064 4.125 8.60218 4.125 9ZM13.875 9C13.875 9.39782 14.033 9.77936 14.3143 10.0607C14.5956 10.342 14.9772 10.5 15.375 10.5H16.5V7.5H15.375C14.9772 7.5 14.5956 7.65804 14.3143 7.93934C14.033 8.22064 13.875 8.60218 13.875 9Z" stroke="#211A2C" stroke-linecap="round" stroke-linejoin="round"/>
</svg>
