<svg width="18" height="18" viewBox="0 0 18 18" fill="none" xmlns="http://www.w3.org/2000/svg">
<path d="M3.75 15.75C3.5375 15.75 3.35925 15.678 3.21525 15.534C3.07175 15.3905 3 15.2125 3 15V14.25C2.375 14.25 1.84375 14.0312 1.40625 13.5938C0.96875 13.1562 0.75 12.625 0.75 12V8.25C0.75 7.8375 0.897 7.48425 1.191 7.19025C1.4845 6.89675 1.8375 6.75 2.25 6.75C2.6625 6.75 3.0155 6.89675 3.309 7.19025C3.603 7.48425 3.75 7.8375 3.75 8.25V11.25H14.25V8.25C14.25 7.8375 14.3967 7.48425 14.6903 7.19025C14.9843 6.89675 15.3375 6.75 15.75 6.75C16.1625 6.75 16.5157 6.89675 16.8097 7.19025C17.1033 7.48425 17.25 7.8375 17.25 8.25V12C17.25 12.625 17.0312 13.1562 16.5938 13.5938C16.1562 14.0312 15.625 14.25 15 14.25V15C15 15.2125 14.928 15.3905 14.784 15.534C14.6405 15.678 14.4625 15.75 14.25 15.75C14.0375 15.75 13.8595 15.678 13.716 15.534C13.572 15.3905 13.5 15.2125 13.5 15V14.25H4.5V15C4.5 15.2125 4.42825 15.3905 4.28475 15.534C4.14075 15.678 3.9625 15.75 3.75 15.75ZM5.25 9.75V8.25C5.25 7.5625 5.0405 6.94675 4.6215 6.40275C4.203 5.85925 3.6625 5.475 3 5.25V4.5C3 3.875 3.21875 3.34375 3.65625 2.90625C4.09375 2.46875 4.625 2.25 5.25 2.25H12.75C13.375 2.25 13.9062 2.46875 14.3438 2.90625C14.7812 3.34375 15 3.875 15 4.5V5.25C14.325 5.425 13.7813 5.7905 13.3688 6.3465C12.9563 6.903 12.75 7.5375 12.75 8.25V9.75H5.25Z" fill="#211A2C"/>
</svg>
