<svg width="18" height="18" viewBox="0 0 18 18" fill="none" xmlns="http://www.w3.org/2000/svg">
<path d="M9 3C8.30381 3 7.63613 3.27656 7.14384 3.76884C6.65156 4.26113 6.375 4.92881 6.375 5.625H7.875C7.875 5.32663 7.99353 5.04048 8.2045 4.8295C8.41548 4.61853 8.70163 4.5 9 4.5C9.29837 4.5 9.58452 4.61853 9.7955 4.8295C10.0065 5.04048 10.125 5.32663 10.125 5.625C10.125 5.92337 10.0065 6.20952 9.7955 6.4205C9.58452 6.63147 9.29837 6.75 9 6.75C8.5875 6.75 8.25 7.0875 8.25 7.5V8.8125L1.8 13.65C1.67407 13.7444 1.58105 13.8761 1.53411 14.0264C1.48718 14.1766 1.48871 14.3378 1.53849 14.4872C1.58827 14.6365 1.68377 14.7664 1.81147 14.8584C1.93917 14.9505 2.09259 15 2.25 15H15.75C15.9074 15 16.0608 14.9505 16.1885 14.8584C16.3162 14.7664 16.4117 14.6365 16.4615 14.4872C16.5113 14.3378 16.5128 14.1766 16.4659 14.0264C16.419 13.8761 16.3259 13.7444 16.2 13.65L9.75 8.8125V8.1375C10.2912 7.97614 10.766 7.64452 11.1038 7.19189C11.4415 6.73927 11.6243 6.18977 11.625 5.625C11.625 4.92881 11.3484 4.26113 10.8562 3.76884C10.3639 3.27656 9.69619 3 9 3ZM9 10.125L13.5 13.5H4.5L9 10.125Z" fill="#211A2C"/>
</svg>
