<svg width="21" height="16" viewBox="0 0 21 16" fill="none" xmlns="http://www.w3.org/2000/svg">
<path d="M10.9362 0C11.2611 0 11.5251 0.256489 11.5251 0.573106V2.97827C11.5251 3.36348 11.854 3.68291 12.2505 3.68291C12.6567 3.68291 12.9758 3.36348 12.9758 2.97827V0.573106C12.9758 0.256489 13.2398 0 13.5658 0H16.7186C18.8075 0 20.5 1.64416 20.5 3.67352V6.0411C20.5 6.22901 20.4226 6.40752 20.2872 6.53905C20.1518 6.67058 19.9681 6.74574 19.7747 6.74574C19.059 6.74574 18.4787 7.30945 18.4787 7.9953C18.4787 8.68585 19.0522 9.24674 19.7611 9.25426C20.1605 9.25802 20.5 9.5286 20.5 9.91662V12.3265C20.5 14.3549 18.8075 16 16.7186 16H13.5658C13.2398 16 12.9758 15.7435 12.9758 15.4269V13.3975C12.9758 13.0029 12.6567 12.6929 12.2505 12.6929C11.854 12.6929 11.5251 13.0029 11.5251 13.3975V15.4269C11.5251 15.7435 11.2611 16 10.9362 16H4.28143C2.20213 16 0.5 14.3558 0.5 12.3265V9.91662C0.5 9.5286 0.839458 9.25802 1.23888 9.25426C1.94874 9.24674 2.52128 8.68585 2.52128 7.9953C2.52128 7.32824 1.96035 6.8209 1.22534 6.8209C1.03191 6.8209 0.848162 6.74574 0.712766 6.61421C0.577369 6.48268 0.5 6.30417 0.5 6.11627V3.68291C0.5 1.65731 2.206 0 4.2911 0H10.9362ZM12.2505 5.70288C11.854 5.70288 11.5251 6.02231 11.5251 6.40752V10.1656C11.5251 10.5508 11.854 10.8702 12.2505 10.8702C12.6567 10.8702 12.9758 10.5508 12.9758 10.1656V6.40752C12.9758 6.02231 12.6567 5.70288 12.2505 5.70288Z" fill="#FDC300"/>
</svg>
