<svg width="8" height="8" viewBox="0 0 8 8" fill="none" xmlns="http://www.w3.org/2000/svg">
<path d="M7.739 4.21114C7.907 3.99564 8 3.73159 8 3.45687C8 3.021 7.749 2.60843 7.345 2.37836C7.24099 2.31914 7.12258 2.28797 7.002 2.28808H4.604L4.664 1.09502C4.678 0.806705 4.573 0.532952 4.369 0.324239C4.26889 0.221367 4.1481 0.139517 4.01412 0.0837496C3.88013 0.0279819 3.73578 -0.000519367 3.59 7.16433e-06C3.07 7.16433e-06 2.61 0.339771 2.472 0.82612L1.613 3.84517H1.61V8H6.333C6.425 8 6.515 7.98253 6.598 7.94758C7.074 7.75052 7.381 7.29911 7.381 6.7982C7.381 6.67589 7.363 6.55552 7.327 6.43903C7.495 6.22352 7.588 5.95947 7.588 5.68475C7.588 5.56243 7.57 5.44206 7.534 5.32557C7.702 5.11006 7.795 4.84602 7.795 4.57129C7.793 4.44898 7.775 4.32763 7.739 4.21114ZM0 4.15581V7.68936C0 7.86118 0.143 8 0.32 8H0.97V3.84517H0.32C0.143 3.84517 0 3.98399 0 4.15581Z" fill="#FDC300"/>
</svg>
